<?xml version="1.0" encoding="utf-8"?>
<!-- Generator: Adobe Illustrator 16.0.0, SVG Export Plug-In . SVG Version: 6.00 Build 0)  -->
<!DOCTYPE svg PUBLIC "-//W3C//DTD SVG 1.1//EN" "http://www.w3.org/Graphics/SVG/1.1/DTD/svg11.dtd">
<svg version="1.1" id="Layer_1" xmlns="http://www.w3.org/2000/svg" xmlns:xlink="http://www.w3.org/1999/xlink" x="0px" y="0px"
	 width="200px" height="100px" viewBox="0 0 200 100" enable-background="new 0 0 200 100" xml:space="preserve">
<g>
	<g>
		<path fill-rule="evenodd" clip-rule="evenodd" fill="#FFFFFF" d="M92,20.005c-0.553,0-1,0.448-1,1v5c0,2.209-1.791,4-4,4
			s-4-1.791-4-4v-5c0-0.552-0.447-1-1-1s-1,0.448-1,1v5c0,3.313,2.687,6,6,6c1.544,0,3-0.6,4-1.557v0.557c0,0.553,0.447,1,1,1
			c0.552,0,1-0.447,1-1v-10C93,20.453,92.552,20.005,92,20.005z"/>
		<path fill-rule="evenodd" clip-rule="evenodd" fill="#FFFFFF" d="M122.031,20.144c-0.504-0.276-1.148-0.112-1.439,0.366
			l-4.258,7.007l-3.91-7.012c-0.277-0.495-0.889-0.665-1.367-0.379c-0.479,0.286-0.643,0.919-0.365,1.414l4.438,7.959l-2.432,4.001
			c-0.291,0.479-0.117,1.09,0.387,1.366c0.502,0.275,1.146,0.112,1.438-0.366l7.895-12.99
			C122.707,21.031,122.535,20.42,122.031,20.144z"/>
		<path fill-rule="evenodd" clip-rule="evenodd" fill="#FFFFFF" d="M77.898,21.074c-0.957-0.657-2.371-1.069-3.62-1.069
			c-1.544,0-3.278,0.6-4.278,1.557v-0.557c0-0.552-0.447-1-1-1s-1,0.448-1,1v10c0,0.553,0.447,1,1,1s1-0.447,1-1v-5
			c0-2.209,2.069-4,4.278-4c0.85,0,1.772,0.269,2.42,0.72l0.082-0.013c0.181,0.181,0.465,0.293,0.741,0.293
			c0.553,0,1.018-0.448,1.018-1C78.539,21.574,78.281,21.215,77.898,21.074z"/>
		<path fill-rule="evenodd" clip-rule="evenodd" fill="#FFFFFF" d="M167.557,24c0-0.859,0.469-2.266,2.617-2.266
			c1.254,0,1.838,0.292,2.768,1.024c0.953,0.75,1.795-0.361,1.248-1.017c-0.711-0.851-1.914-1.736-4.119-1.736
			c-2.809,0-4.205,2.233-4.186,3.995c0.047,4.359,6.813,1.609,7.203,3.859c0.207,1.2-0.902,2.652-3.018,2.652
			c-1.352,0-2.475-0.689-3.121-1.399c-0.77-0.842-1.717,0.121-1.283,0.755c1.029,1.503,2.934,2.144,4.404,2.144
			c3.043,0,4.768-1.855,4.768-4.011C174.838,23.672,167.557,26.109,167.557,24z"/>
		<path fill-rule="evenodd" clip-rule="evenodd" fill="#FFFFFF" d="M102.278,20C100.739,20,99,20.584,98,21.537V16
			c0-0.552-0.447-1-1-1s-1,0.448-1,1v10c0,3.313,2.964,6,6.278,6c3.313,0,6-2.687,6-6S105.591,20,102.278,20z M102.557,30
			c-2.209,0-4-1.791-4-4s1.791-4,4-4s4,1.791,4,4S104.766,30,102.557,30z"/>
		<path fill-rule="evenodd" clip-rule="evenodd" fill="#FFFFFF" d="M131.488,22h-2v6c0,1.105,0.895,2,2,2c0.553,0,1,0.447,1,1
			s-0.447,1-1,1c-2.209,0-4-1.791-4-4v-6h-2c-0.553,0-1-0.447-1-1c0-0.552,0.447-1,1-1h2v-4c0-0.552,0.447-1,1-1s1,0.448,1,1v4h2
			c0.553,0,1,0.448,1,1C132.488,21.553,132.041,22,131.488,22z"/>
		<path fill-rule="evenodd" clip-rule="evenodd" fill="#FFFFFF" d="M141.241,32c1.539,0,2.759-0.584,3.759-1.537V31
			c0,0.552,0.447,1,1,1s1-0.448,1-1v-5c0-3.313-2.444-6-5.759-6c-3.313,0-5.998,2.687-5.998,6S137.929,32,141.241,32z M141.484,22
			c2.209,0,4,1.791,4,4s-1.791,4-4,4s-4-1.791-4-4S139.275,22,141.484,22z"/>
		<path fill-rule="evenodd" clip-rule="evenodd" fill="#FFFFFF" d="M156.247,20c-1.539,0-3.247,0.584-4.247,1.537V16
			c0-0.552-0.447-1-1-1s-1,0.448-1,1v10c0,3.313,2.933,6,6.247,6c3.313,0,6-2.687,6-6S159.56,20,156.247,20z M156.496,30
			c-2.209,0-4-1.791-4-4s1.791-4,4-4s4,1.791,4,4S158.705,30,156.496,30z"/>
	</g>
	<path fill="#FFFFFF" d="M54.115,15.819L55.177,8l-3.654,6.132l-7.881,2.881c-0.581-0.284-1.187-0.519-1.798-0.679
		c-0.404,0.35-1.158,0.577-1.658,0.577c-0.674,0-1.27-0.227-1.674-0.577c-0.614,0.16-1.223,0.396-1.807,0.682l-7.889-2.884L25.162,8
		l1.063,7.819l6.42,4.318c-0.264,0.319-0.457,0.613-0.58,0.868c-0.816-1.189-1.784-1.73-2.354-1.73
		c-1.279,3.902,1.795,4.117,3.383,6.671c0.028,1.038-0.014,2.017,0.064,2.866c0.5,5.403,3.779,2.78,3.779,10.588
		c0,0.308,0.066,0.594,0.184,0.857L40.186,42l3.049-1.744c0.116-0.263,0.168-0.549,0.168-0.857c0-7.808,3.279-5.185,3.779-10.588
		c0.078-0.849,0.035-1.828,0.064-2.866c1.587-2.554,4.662-2.769,3.382-6.671c-0.569,0-1.537,0.541-2.353,1.73
		c-0.123-0.255-0.316-0.549-0.58-0.869L54.115,15.819z M37.502,28.572c-0.762,0-2.169-1.114-2.326-2.815
		C36.193,26.842,37.854,26.246,37.502,28.572z M42.837,28.572c-0.352-2.326,1.31-1.73,2.326-2.815
		C45.006,27.458,43.6,28.572,42.837,28.572z"/>
</g>
<g>
	<g>
		<path fill-rule="evenodd" clip-rule="evenodd" fill="#FF006A" d="M92,70.005c-0.553,0-1,0.448-1,1v5c0,2.209-1.791,4-4,4
			s-4-1.791-4-4v-5c0-0.552-0.447-1-1-1s-1,0.448-1,1v5c0,3.313,2.687,6,6,6c1.544,0,3-0.6,4-1.557v0.557c0,0.553,0.447,1,1,1
			c0.552,0,1-0.447,1-1v-10C93,70.453,92.552,70.005,92,70.005z"/>
		<path fill-rule="evenodd" clip-rule="evenodd" fill="#FF006A" d="M122.031,70.144c-0.504-0.276-1.148-0.112-1.439,0.366
			l-4.258,7.007l-3.91-7.013c-0.277-0.494-0.889-0.664-1.367-0.379c-0.479,0.286-0.643,0.92-0.365,1.414l4.438,7.96l-2.432,4.001
			c-0.291,0.479-0.117,1.09,0.387,1.366c0.502,0.275,1.146,0.112,1.438-0.366l7.895-12.99
			C122.707,71.031,122.535,70.42,122.031,70.144z"/>
		<path fill-rule="evenodd" clip-rule="evenodd" fill="#FF006A" d="M77.898,71.074c-0.957-0.656-2.371-1.069-3.62-1.069
			c-1.544,0-3.278,0.6-4.278,1.558v-0.558c0-0.552-0.447-1-1-1s-1,0.448-1,1v10c0,0.553,0.447,1,1,1s1-0.447,1-1v-5
			c0-2.209,2.069-4,4.278-4c0.85,0,1.772,0.269,2.42,0.72l0.082-0.013c0.181,0.181,0.465,0.293,0.741,0.293
			c0.553,0,1.018-0.448,1.018-1C78.539,71.574,78.281,71.215,77.898,71.074z"/>
		<path fill-rule="evenodd" clip-rule="evenodd" fill="#FF006A" d="M167.557,74c0-0.859,0.469-2.266,2.617-2.266
			c1.254,0,1.838,0.292,2.768,1.023c0.953,0.75,1.795-0.361,1.248-1.016c-0.711-0.852-1.914-1.736-4.119-1.736
			c-2.809,0-4.205,2.232-4.186,3.994c0.047,4.359,6.813,1.609,7.203,3.859c0.207,1.199-0.902,2.652-3.018,2.652
			c-1.352,0-2.475-0.689-3.121-1.399c-0.77-0.843-1.717,0.12-1.283,0.755c1.029,1.504,2.934,2.145,4.404,2.145
			c3.043,0,4.768-1.855,4.768-4.012C174.838,73.672,167.557,76.109,167.557,74z"/>
		<path fill-rule="evenodd" clip-rule="evenodd" fill="#FF006A" d="M102.278,70C100.739,70,99,70.584,98,71.537V66
			c0-0.553-0.447-1-1-1s-1,0.447-1,1v10c0,3.313,2.964,6,6.278,6c3.313,0,6-2.687,6-6S105.591,70,102.278,70z M102.557,80
			c-2.209,0-4-1.791-4-4s1.791-4,4-4s4,1.791,4,4S104.766,80,102.557,80z"/>
		<path fill-rule="evenodd" clip-rule="evenodd" fill="#FF006A" d="M131.488,72h-2v6c0,1.105,0.895,2,2,2c0.553,0,1,0.447,1,1
			s-0.447,1-1,1c-2.209,0-4-1.791-4-4v-6h-2c-0.553,0-1-0.447-1-1c0-0.552,0.447-1,1-1h2v-4c0-0.552,0.447-1,1-1s1,0.448,1,1v4h2
			c0.553,0,1,0.448,1,1C132.488,71.553,132.041,72,131.488,72z"/>
		<path fill-rule="evenodd" clip-rule="evenodd" fill="#FF006A" d="M141.241,82c1.539,0,2.759-0.584,3.759-1.537V81
			c0,0.553,0.447,1,1,1s1-0.447,1-1v-5c0-3.313-2.444-6-5.759-6c-3.313,0-5.998,2.687-5.998,6S137.929,82,141.241,82z M141.484,72
			c2.209,0,4,1.791,4,4s-1.791,4-4,4s-4-1.791-4-4S139.275,72,141.484,72z"/>
		<path fill-rule="evenodd" clip-rule="evenodd" fill="#FF006A" d="M156.247,70c-1.539,0-3.247,0.584-4.247,1.537V66
			c0-0.553-0.447-1-1-1s-1,0.447-1,1v10c0,3.313,2.933,6,6.247,6c3.313,0,6-2.687,6-6S159.56,70,156.247,70z M156.496,80
			c-2.209,0-4-1.791-4-4s1.791-4,4-4s4,1.791,4,4S158.705,80,156.496,80z"/>
	</g>
	<path fill="#FF006A" d="M54.115,65.818L55.177,58l-3.654,6.133l-7.881,2.881c-0.581-0.284-1.187-0.52-1.798-0.679
		c-0.404,0.351-1.158,0.577-1.658,0.577c-0.674,0-1.27-0.227-1.674-0.577c-0.614,0.16-1.223,0.396-1.807,0.682l-7.889-2.884
		L25.162,58l1.063,7.818l6.42,4.318c-0.264,0.32-0.457,0.613-0.58,0.868c-0.816-1.188-1.784-1.729-2.354-1.729
		c-1.279,3.902,1.795,4.116,3.383,6.67c0.028,1.038-0.014,2.018,0.064,2.866c0.5,5.403,3.779,2.78,3.779,10.588
		c0,0.308,0.066,0.595,0.184,0.856L40.186,92l3.049-1.744c0.116-0.262,0.168-0.549,0.168-0.856c0-7.808,3.279-5.185,3.779-10.588
		c0.078-0.849,0.035-1.828,0.064-2.866c1.587-2.554,4.662-2.768,3.382-6.67c-0.569,0-1.537,0.541-2.353,1.729
		c-0.123-0.255-0.316-0.55-0.58-0.869L54.115,65.818z M37.502,78.572c-0.762,0-2.169-1.114-2.326-2.814
		C36.193,76.842,37.854,76.246,37.502,78.572z M42.837,78.572c-0.352-2.326,1.31-1.73,2.326-2.814
		C45.006,77.458,43.6,78.572,42.837,78.572z"/>
</g>
</svg>
