<?xml version="1.0" standalone="no"?><!-- Generator: Gravit.io --><svg xmlns="http://www.w3.org/2000/svg" xmlns:xlink="http://www.w3.org/1999/xlink" style="isolation:isolate" viewBox="0 0 370 200" width="370" height="200"><defs><clipPath id="_clipPath_KtutvQV6Wrlhc8QQSAzs9jF9D5x5mWJ0"><rect width="370" height="200"/></clipPath></defs><g clip-path="url(#_clipPath_KtutvQV6Wrlhc8QQSAzs9jF9D5x5mWJ0)"><g id="Group"><path d=" M 48 100 C 48 110.492 39.492 119 29 119 C 18.508 119 10 110.492 10 100 C 10 89.508 18.508 81 29 81 C 39.492 81 48 89.508 48 100 Z " fill="rgb(255,153,0)"/><path d=" M 35 109 L 24.316 109 L 24.316 106.617 L 29.234 101.285 C 30.449 99.863 31.054 98.735 31.054 97.895 C 31.054 97.219 30.91 96.699 30.625 96.348 C 30.335 95.992 29.922 95.816 29.371 95.816 C 28.832 95.816 28.395 96.055 28.059 96.527 C 27.723 97 27.555 97.59 27.555 98.297 L 24 98.297 C 24 97.328 24.234 96.437 24.703 95.617 C 25.165 94.806 25.842 94.14 26.66 93.691 C 27.492 93.231 28.426 93 29.457 93 C 31.109 93 32.387 93.395 33.281 94.184 C 34.176 94.969 34.621 96.098 34.621 97.574 C 34.621 98.195 34.508 98.801 34.285 99.387 C 34.059 99.977 33.711 100.594 33.238 101.238 C 32.766 101.887 32.004 102.75 30.949 103.836 L 28.973 106.184 L 35 106.184 L 35 109 Z " fill="rgb(25,118,210)"/></g><g id="Group"><path d=" M 48 155.25 C 48 165.742 39.492 174.25 29 174.25 C 18.508 174.25 10 165.742 10 155.25 C 10 144.758 18.508 136.25 29 136.25 C 39.492 136.25 48 144.758 48 155.25 Z " fill="rgb(255,153,0)"/><path d=" M 28.395 154.74 L 30.102 154.74 C 31.457 154.74 32.132 154.076 32.132 152.752 C 32.132 152.236 31.972 151.814 31.648 151.49 C 31.328 151.166 30.871 151.002 30.285 151.002 C 29.805 151.002 29.391 151.142 29.035 151.42 C 28.68 151.701 28.504 152.049 28.504 152.463 L 24.883 152.463 C 24.883 151.639 25.113 150.904 25.57 150.26 C 26.027 149.615 26.664 149.115 27.477 148.752 C 28.289 148.389 29.184 148.209 30.157 148.209 C 31.895 148.209 33.262 148.607 34.262 149.4 C 35.254 150.197 35.754 151.287 35.754 152.678 C 35.754 153.35 35.547 153.986 35.137 154.584 C 34.723 155.182 34.121 155.666 33.336 156.037 C 34.164 156.342 34.816 156.799 35.289 157.408 C 35.766 158.021 36 158.779 36 159.682 C 36 161.076 35.465 162.197 34.39 163.033 C 33.316 163.873 31.902 164.291 30.156 164.291 C 29.175 164.299 28.203 164.1 27.305 163.705 C 26.43 163.315 25.762 162.775 25.313 162.084 C 24.859 161.393 24.637 160.607 24.637 159.724 L 28.277 159.724 C 28.277 160.205 28.469 160.624 28.855 160.971 C 29.242 161.322 29.719 161.498 30.285 161.498 C 30.922 161.498 31.434 161.318 31.812 160.967 C 32.192 160.611 32.379 160.158 32.379 159.607 C 32.379 158.818 32.184 158.26 31.789 157.932 C 31.395 157.604 30.852 157.439 30.156 157.439 L 28.395 157.439 L 28.395 154.74 Z " fill="rgb(25,118,210)"/></g><g id="Group"><path d=" M 48 44.75 C 48 55.242 39.492 63.75 29 63.75 C 18.508 63.75 10 55.242 10 44.75 C 10 34.258 18.508 25.75 29 25.75 C 39.492 25.75 48 34.258 48 44.75 Z " fill="rgb(255,153,0)"/><path d=" M 32 52.75 L 28.469 52.75 L 28.469 41.191 L 25 42.234 L 25 39.484 L 31.676 37.109 L 32 37.109 L 32 52.75 Z " fill="rgb(25,118,210)"/></g><g transform="matrix(1,0,0,1,55,25.75)"><text transform="matrix(1,0,0,1,0,24.264)" style="font-family:&quot;ABeeZee&quot;;font-weight:400;font-size:16px;font-style:normal;fill:#000000;stroke:none;">Renseigner votre adresse mail</text></g><g transform="matrix(1,0,0,1,55,81)"><text transform="matrix(1,0,0,1,0,24.264)" style="font-family:&quot;ABeeZee&quot;;font-weight:400;font-size:16px;font-style:normal;fill:#000000;stroke:none;">Consulter votre boite mail</text></g><g transform="matrix(1,0,0,1,55,136.25)"><text transform="matrix(1,0,0,1,0,24.264)" style="font-family:&quot;ABeeZee&quot;;font-weight:400;font-size:16px;font-style:normal;fill:#000000;stroke:none;">Choisissez votre nouveau mot de passe</text></g></g></svg>